<svg width="903" height="417" viewBox="0 0 903 417" fill="none" xmlns="http://www.w3.org/2000/svg">
<rect x="0.175781" y="416.304" width="416.127" height="902.138" rx="59.2955" transform="rotate(-90 0.175781 416.304)" fill="#33BB9A"/>
<path d="M313.343 243.237C311.738 243.413 310.058 243.355 308.577 242.876C307.923 242.661 307.26 242.399 306.733 241.957C302.87 238.707 302.634 232.073 301.461 216.902L299.431 190.551C299.096 186.214 301.599 184.281 306.45 183.927L321.555 182.763C322.815 182.627 334.095 181.594 341.603 189.89C346.027 194.78 346.892 200.425 347.085 202.874C347.283 205.317 347.405 211.921 342.8 217.969C341.436 219.761 339.784 221.325 337.916 222.592C336.337 223.668 334.612 224.534 332.812 225.188C330.191 226.142 327.446 226.556 324.663 226.669C323.705 226.709 322.748 226.711 321.79 226.751C321.968 226.742 321.947 229.477 321.944 229.747C321.932 230.847 321.872 231.946 321.758 233.039C321.549 235.089 321.292 237.274 320.239 239.095C320.222 239.12 320.209 239.145 320.192 239.171C319.084 241.03 317.132 242.516 315.055 242.955C314.499 243.075 313.917 243.168 313.328 243.233L313.343 243.237ZM322.956 212.788C324.925 212.776 327.086 212.103 328.578 210.793C331.709 208.045 331.246 201.852 328.109 199.245C326.633 198.019 324.682 197.639 322.809 197.716C321.14 197.618 319.653 198.388 319.862 200.213C319.966 201.574 320.386 207.013 320.585 209.601C320.614 211.165 320.888 212.783 322.849 212.786L322.951 212.788L322.956 212.788Z" fill="white"/>
<path d="M374.003 198.645C375.819 197.794 379.064 197.583 381.01 198.207C382.642 198.731 383.663 200.293 383.731 201.793C383.798 203.163 383.976 204.009 383.798 207.392C383.264 217.451 378.857 213.885 372.139 217.985C371.35 218.504 370.757 218.831 370.425 219.287C370.03 219.806 369.9 220.393 369.9 221.373C369.9 239.151 369.789 240.454 361.16 240.454C352.53 240.454 351.543 239.084 351.543 219.158C351.543 199.231 352.135 197.929 361.16 197.929C366.298 197.929 367.646 199.563 368.966 203.475C369.953 201.783 372.043 199.563 374.003 198.645Z" fill="white"/>
<path d="M455.337 199.693C455.857 198.761 456.285 197.785 456.729 196.819C461.274 186.986 462.719 182.698 470.906 182.622C480.055 182.535 483.426 186.505 477.383 198.314C474.277 204.12 470.781 208.277 468.936 210.555C470.583 213.093 473.8 216.972 477.253 222.667C484.394 233.63 484.226 240.445 474.281 240.445C464.337 240.445 463.485 239.34 455.847 222.667L452.25 216.808C452.12 238.82 451.412 240.604 442.455 240.445C433.498 240.286 432.39 236.489 432.66 211.531C432.93 186.572 433.835 182.694 442.455 182.617C451.075 182.54 452.12 184.179 452.25 205.216L455.342 199.688L455.337 199.693Z" fill="white"/>
<path d="M588.384 214.624C592.342 215.474 597.217 215.431 600.377 218.292C604.464 221.99 604.009 229.177 601.579 233.609C598.855 238.571 592.86 240.796 587.509 241.67C581.176 242.7 573.922 242.668 567.946 240.145C563.556 238.295 560.319 234.778 560.074 229.91C560.008 228.643 559.797 226.424 561.084 225.511C562.281 224.664 564.364 224.819 565.74 224.754C566.904 224.702 568.073 224.659 569.238 224.616C577.929 224.298 578.553 224.218 578.553 225.141L578.569 225.597C578.6 226.428 578.63 226.855 579.014 227.611C579.638 228.848 581.095 228.78 582.306 228.668C583.996 228.51 584.495 226.871 584.437 225.407C584.389 224.11 583.542 223.482 582.372 223.121L574.136 221.503C566.22 219.576 564.403 220.359 561.301 216.562C560.194 215.17 559.468 213.373 559.39 211.222C559.226 210.314 559.07 208.949 559.247 207.317C559.855 201.687 563.499 197.244 568.561 194.794C577.666 190.382 591.008 191.139 598.319 198.663C601.113 201.538 602.525 205.353 602.04 209.339C601.88 210.638 600.773 211.059 599.503 211.249C597.442 211.56 595.294 211.461 593.218 211.479C585.804 211.558 583.897 212.104 583.893 210.69L583.835 209.086C583.784 207.717 582.405 207.426 581.268 207.425C579.87 207.423 578.211 207.508 577.95 209.186C577.806 210.129 577.964 211.432 578.642 212.167C578.948 212.497 579.374 212.693 579.812 212.816C582.598 213.623 585.551 213.992 588.388 214.604L588.384 214.624Z" fill="white"/>
<path fill-rule="evenodd" clip-rule="evenodd" d="M401.186 239.45C408.891 241.887 417.526 239.748 422.987 234.183L422.987 234.187C428.284 228.785 428.693 222.1 428.799 219.817C428.915 217.298 429.001 206.513 420.078 200.179C413.062 195.19 403.267 194.95 395.855 199.698C385.035 206.634 386.137 219.855 386.195 220.442C386.999 228.367 392.215 236.615 401.186 239.45ZM407.616 210.22C404.424 210.22 401.837 212.807 401.837 215.998L401.837 221.263C401.837 224.454 404.424 227.041 407.616 227.041C410.807 227.041 413.394 224.454 413.394 221.263L413.394 215.998C413.394 212.807 410.807 210.22 407.616 210.22Z" fill="white"/>
<path fill-rule="evenodd" clip-rule="evenodd" d="M525.887 240.366C529.497 240.654 534.276 238.648 536.707 235.356C536.856 235.662 536.995 235.978 537.136 236.298C538.119 238.537 539.187 240.968 544.385 241.513C553.055 242.205 553.79 240.436 555.944 213.429C558.098 186.422 557.652 184.559 548.982 183.868C541.695 183.287 539.828 186.769 538.202 203.037C536.008 199.54 531.216 197.716 527.298 197.297C522.489 196.784 517.656 198.081 514.057 201.41C509.733 205.414 508.331 211.778 507.947 217.446C507.496 224.136 508.454 231.449 513.761 236.139C518.743 240.543 524.67 240.428 525.964 240.372L525.887 240.366ZM528.47 211.841C525.288 211.588 522.504 213.961 522.25 217.142L521.832 222.39C521.578 225.571 523.951 228.356 527.133 228.61C530.314 228.864 533.099 226.49 533.352 223.309L533.771 218.061C534.025 214.88 531.651 212.095 528.47 211.841Z" fill="white"/>
<path d="M485.182 219.158C485.182 199.294 487.764 197.934 494.9 197.929C502.037 197.924 504.137 199.299 504.137 219.158C504.137 239.017 501.729 240.618 494.9 240.454C488.727 240.305 485.182 239.084 485.182 219.158Z" fill="white"/>
<path d="M501.389 185.911C506.237 181.011 505.339 179.723 498.813 179.591C498.626 179.588 498.448 179.482 498.356 179.319C495.096 173.553 493.447 173.315 491.156 179.801C491.094 179.976 490.937 180.112 490.755 180.149C483.106 181.712 483.638 183.507 488.74 187.349C488.896 187.467 488.976 187.668 488.946 187.861C487.909 194.45 489.019 195.041 495.253 191.144C495.409 191.047 495.612 191.037 495.777 191.119C501.332 193.901 502.905 193.488 501.247 186.413C501.206 186.236 501.261 186.041 501.389 185.911Z" fill="#FFF4B7"/>
</svg>
